<?xml version="1.0" encoding="UTF-8"?>
<svg id="c" data-name="Layer 2" xmlns="http://www.w3.org/2000/svg" width="211.2" height="44.93" xmlns:xlink="http://www.w3.org/1999/xlink" viewBox="0 0 211.2 44.93">
  <defs>
    <symbol id="a" data-name="otherhalf" viewBox="0 0 21.86 24.25">
      <path d="m21.86,2.88l-1.87-.14s-.2,1.84-2.02,1.84c-1.96,0-2.71-1.84-4.53-3.02-1.42-.92-3.07-1.55-4.9-1.55C3.82,0,0,3.82,0,8.54v15.71h5.35v-15.51c0-2.04,1.66-3.7,3.7-3.7.79,0,1.52.25,2.12.68,2.84,1.76,3.63,3.58,6.45,3.58,1.95,0,2.88-1.6,4.23-1.6V2.88Z"/>
    </symbol>
  </defs>
  <g id="d" data-name="Layer 1">
    <path class="f" d="m48.29,31.73s0-.05-.01-.07c0,.02,0,.05,0,.07h0Z"/>
    <g>
      <path d="m64.15,20.65c2.02,0,3.74.71,5.16,2.12,1.42,1.42,2.12,3.14,2.12,5.16v9.71c0,2.02-.71,3.75-2.12,5.16-1.42,1.42-3.14,2.12-5.16,2.12h-9.71c-2.02,0-3.75-.71-5.16-2.12-1.42-1.42-2.12-3.14-2.12-5.16s.71-3.74,2.12-5.16,3.14-2.12,5.16-2.12h9.71c.81,0,1.62.12,2.43.36v-2.79c0-.65-.24-1.21-.73-1.7-.49-.49-1.05-.73-1.7-.73h-9.71v-4.86h9.71Zm0,19.43c.65,0,1.21-.24,1.7-.73.49-.49.73-1.05.73-1.7s-.24-1.21-.73-1.7c-.49-.49-1.05-.73-1.7-.73h-9.71c-.65,0-1.21.24-1.7.73-.49.49-.73,1.05-.73,1.7s.24,1.21.73,1.7c.49.49,1.05.73,1.7.73h9.71Z"/>
      <rect x="54.45" y="7.67" width="4.86" height="1.7"/>
      <path d="m54.45,9.37c0,2.02.71,3.75,2.12,5.16,1.42,1.42,3.14,2.12,5.16,2.12s3.74-.71,5.16-2.12c1.42-1.42,2.12-3.14,2.12-5.16-3.24.65-5.1,1.21-5.59,1.7-.49.49-1.05.73-1.7.73s-1.21-.24-1.7-.73c-.49-.49-.73-1.05-.73-1.7h-4.86Z"/>
      <path d="m64.17,9.37c0,.65-.24,1.21-.73,1.7-.49.49-1.05.73-1.7.73s-1.21-.24-1.7-.73c-.49-.49-2.35-1.05-5.59-1.7,0,2.02.71,3.75,2.12,5.16,1.42,1.42,3.14,2.12,5.16,2.12s3.74-.71,5.16-2.12c1.42-1.42,2.12-3.14,2.12-5.16h-4.86Z"/>
      <rect x="64.17" y="7.67" width="4.86" height="1.7"/>
    </g>
    <path d="m197.36,37.89h.12c.08.16.2.32.36.49.49.41,1.05.73,1.7.97.89.49,1.86.73,2.91.73h.12c2.02,0,3.72-.73,5.1-2.19l3.52,3.52c-2.43,2.35-5.3,3.52-8.62,3.52-1.54,0-3-.28-4.37-.85-1.62-.57-3.04-1.46-4.25-2.67v-.12c-2.35-2.35-3.52-5.18-3.52-8.5V6.08h4.86v14.57h12.14v4.86h-12.14v7.29c0,2.02.69,3.72,2.06,5.1Z"/>
    <path d="m6.92,37.89h.12c.08.16.2.32.36.49.49.41,1.05.73,1.7.97.89.49,1.86.73,2.91.73h.12c2.02,0,3.72-.73,5.1-2.19l3.52,3.52c-2.43,2.35-5.3,3.52-8.62,3.52-1.54,0-3-.28-4.37-.85-1.62-.57-3.04-1.46-4.25-2.67v-.12c-2.35-2.35-3.52-5.18-3.52-8.5V6.08h4.86v14.57h12.14v4.86H4.86v7.29c0,2.02.69,3.72,2.06,5.1Z"/>
    <g>
      <use width="21.86" height="24.25" transform="translate(78.25 20.68)" xlink:href="#a"/>
      <use width="21.86" height="24.25" transform="translate(121.96 20.68) rotate(-180) scale(1 -1)" xlink:href="#a"/>
      <ellipse cx="100.11" cy="20.96" rx="3.32" ry="3.11"/>
    </g>
    <path d="m38.87,20.77c-3.09,0-6.58,1.77-8.14,4.27v-4.9h-4.86v24.8h4.86v-9.2c0-4.1,3.38-10.11,8.23-10.11,2.21,0,3.75.68,5.1,2.54l3.43-2.79c-2.45-3.34-5.18-4.61-8.62-4.61Z"/>
  </g>
  <g id="e" data-name="Layer 4">
    <path d="m152.72,6.08c0,19.43,0,28.33,0,26.71,0,3.32-1.2,6.17-3.58,8.56s-5.24,3.58-8.56,3.58-6.17-1.19-8.56-3.58c-2.39-2.39-3.58-5.24-3.58-8.56s1.19-6.17,3.58-8.56,5.24-3.58,8.56-3.58c2.67,0,5.1.81,7.29,2.43V6.08h4.86Zm-6.98,31.88c1.42-1.42,2.12-3.14,2.12-5.16s-.71-3.74-2.12-5.16c-1.42-1.42-3.14-2.12-5.16-2.12s-3.75.71-5.16,2.12c-1.42,1.42-2.12,3.14-2.12,5.16s.71,3.75,2.12,5.16c1.42,1.42,3.14,2.12,5.16,2.12s3.74-.71,5.16-2.12Zm-7.59-27.02h19.43v4.86h-19.43v-4.86Z"/>
    <path d="m171.41,13.69l-5.17,5.17-3.4-3.4,6.87-6.87c.49-.49,1.05-.73,1.7-.73h.12c.24,0,.5.06.79.18.28.12.55.3.79.55l6.87,6.87-3.4,3.4-5.17-5.17Z"/>
    <path d="m179.97,24.23c-2.39-2.39-5.24-3.58-8.56-3.58s-6.17,1.2-8.56,3.58-3.58,5.24-3.58,8.56,1.19,6.17,3.58,8.56c2.39,2.39,5.24,3.58,8.56,3.58s6.17-1.19,8.56-3.58,3.58-5.24,3.58-8.56-1.2-6.17-3.58-8.56Zm-3.4,13.72c-1.42,1.42-3.14,2.12-5.16,2.12s-3.75-.71-5.16-2.12c-1.42-1.42-2.12-3.14-2.12-5.16s.71-3.74,2.12-5.16c1.42-1.42,3.14-2.12,5.16-2.12s3.74.71,5.16,2.12c1.42,1.42,2.12,3.14,2.12,5.16s-.71,3.75-2.12,5.16Z"/>
    <rect x="177.45" y="3.06" width="10.65" height="4.81" transform="translate(49.68 130.85) rotate(-45)"/>
  </g>
</svg>